<svg xmlns="http://www.w3.org/2000/svg" width="108.828" height="79.186" viewBox="0 0 108.828 79.186">
  <g id="Attachments" transform="translate(0 0)">
    <g id="Group_457" data-name="Group 457" transform="translate(0 0)">
      <path id="Path_253" data-name="Path 253" d="M85.034,145.836H61.685V122.242H69.4a2.414,2.414,0,0,0,1.957-3.825L56.349,97.648a2.392,2.392,0,0,0-3.891,0l-15.01,20.769a2.408,2.408,0,0,0,1.957,3.825H47.12v23.593H20.969C9.3,145.191,0,134.273,0,122.443a22.153,22.153,0,0,1,10.985-19.124,14.852,14.852,0,0,1-.912-5.181A15.061,15.061,0,0,1,25.15,83.061a14.819,14.819,0,0,1,5.159.912,30.183,30.183,0,0,1,57.349,9.962c12.03,2.068,21.17,13.209,21.17,25.817C108.828,133.228,98.332,144.9,85.034,145.836Z" transform="translate(0 -66.65)" fill="#0090ff"/>
    </g>
  </g>
</svg>
