<svg id="Budget" xmlns="http://www.w3.org/2000/svg" width="25.891" height="25.771" viewBox="0 0 25.891 25.771">
  <path id="Path_5165" data-name="Path 5165" d="M192.791,189.183a3.928,3.928,0,1,0,3.948,3.928A3.942,3.942,0,0,0,192.791,189.183Zm1.345,5.879a1.759,1.759,0,0,1-1.084.544v.657h-.515v-.65a1.651,1.651,0,0,1-.992-.45,1.85,1.85,0,0,1-.489-1.066l.922-.109a1.154,1.154,0,0,0,.213.485.972.972,0,0,0,.346.3v-1.475a1.934,1.934,0,0,1-1.012-.6,1.493,1.493,0,0,1-.323-.97,1.371,1.371,0,0,1,.365-.97,1.464,1.464,0,0,1,.97-.452v-.347h.515v.347a1.532,1.532,0,0,1,.9.383,1.475,1.475,0,0,1,.427.845l-.9.116a.723.723,0,0,0-.428-.563v1.376a2.3,2.3,0,0,1,1.163.592,1.392,1.392,0,0,1,.31.935A1.555,1.555,0,0,1,194.136,195.062Z" transform="translate(-179.845 -180.225)" fill="#0090ff"/>
  <path id="Path_5166" data-name="Path 5166" d="M260.443,261.7v1.381a.769.769,0,0,0,.434-.253.68.68,0,0,0,.168-.46.617.617,0,0,0-.141-.406A.894.894,0,0,0,260.443,261.7Z" transform="translate(-247.236 -248.475)" fill="#0090ff"/>
  <path id="Path_5167" data-name="Path 5167" d="M244.143,221.532a.627.627,0,0,0-.121.373.6.6,0,0,0,.11.346.765.765,0,0,0,.34.258v-1.221A.667.667,0,0,0,244.143,221.532Z" transform="translate(-231.781 -210.444)" fill="#0090ff"/>
  <path id="Path_5168" data-name="Path 5168" d="M61.591,49.877a.271.271,0,0,0,.032-.039v0c0-.006.006-.012.009-.018h0a.283.283,0,0,0,.014-.027v0c0-.007,0-.013.006-.02l0-.006c0-.008.005-.015.007-.023v0c0-.007,0-.014,0-.021a.271.271,0,0,0,0-.032h0c0-.007,0-.013,0-.02a.266.266,0,0,0,0-.033h0c0-.008,0-.015-.007-.023a.26.26,0,0,0-.008-.027v0a.267.267,0,0,0-.013-.025c0-.007-.007-.015-.011-.021h0a.282.282,0,0,0-.028-.035l-.006-.007h0L60,47.913a.275.275,0,0,0-.389.39l1.111,1.106H57.419a8.6,8.6,0,0,0-2.355-5.646l2.359-2.348v1.439a.275.275,0,0,0,.275.275h0a.276.276,0,0,0,.275-.276v-2.1h0s0,0,0-.008a.277.277,0,0,0,0-.046c0-.008,0-.015-.007-.023a.267.267,0,0,0-.009-.028.239.239,0,0,0-.013-.025.245.245,0,0,0-.012-.022.283.283,0,0,0-.029-.035l-.005-.007h0a.278.278,0,0,0-.042-.034l-.02-.011A.273.273,0,0,0,57.8,40.5l-.027-.008-.024-.007a.277.277,0,0,0-.054-.005H55.587a.275.275,0,0,0,0,.551h1.444l-4.278,4.258,1.92-1.911A8.689,8.689,0,0,0,49,41.032v-3.3l1.114,1.109a.275.275,0,1,0,.389-.39L48.92,36.88h0l-.006,0a.274.274,0,0,0-.036-.029h0l-.021-.011a.267.267,0,0,0-.025-.013h0l-.027-.008-.022-.007h0l-.03,0-.022,0h0l-.03,0-.022,0h0l-.02.006-.008,0-.022.006h0l-.024.013h0l-.021.011h0a.277.277,0,0,0-.034.028l-.007.006-1.584,1.576a.275.275,0,1,0,.389.39l1.114-1.109v3.3a8.689,8.689,0,0,0-5.674,2.342l-2.358-2.347h1.444a.275.275,0,0,0,0-.551H39.75a.281.281,0,0,0-.054.005l-.024.007-.027.009a.273.273,0,0,0-.027.014l-.02.011a.277.277,0,0,0-.042.034h0l-.006.007a.276.276,0,0,0-.028.034.239.239,0,0,0-.012.022.278.278,0,0,0-.013.026.272.272,0,0,0-.009.028c0,.005,0,.01,0,.015l0,.007v0a.275.275,0,0,0,0,.044s0,.006,0,.009v2.1a.276.276,0,0,0,.275.276h0a.275.275,0,0,0,.275-.275V41.415l4.281,4.261-1.922-1.913a8.6,8.6,0,0,0-2.355,5.646H36.721L37.832,48.3a.275.275,0,1,0-.389-.39L35.86,49.489h0l-.006.007a.27.27,0,0,0-.028.034h0c0,.007-.007.014-.011.021a.251.251,0,0,0-.013.025v0a.255.255,0,0,0-.007.025h0c0,.008-.005.015-.007.023v0c0,.008,0,.016,0,.025a.257.257,0,0,0,0,.028h0c0,.008,0,.016,0,.023s0,.019,0,.029v0c0,.008,0,.015.007.023a.276.276,0,0,0,.008.027v0a.253.253,0,0,0,.013.025c0,.007.007.014.011.021h0a.273.273,0,0,0,.029.036l0,.005h0l1.584,1.576a.275.275,0,1,0,.389-.39L36.722,49.96H40.03a8.6,8.6,0,0,0,2.355,5.646l1.922-1.913-4.281,4.261V56.515a.275.275,0,0,0-.275-.275h0a.275.275,0,0,0-.275.275v2.1s0,.006,0,.009a.269.269,0,0,0,0,.044v0l0,.007c0,.005,0,.01,0,.015a.253.253,0,0,0,.009.028.27.27,0,0,0,.013.026.249.249,0,0,0,.012.022.275.275,0,0,0,.028.034l.006.007h0a.278.278,0,0,0,.042.034l.021.011a.267.267,0,0,0,.027.014l.028.009.024.007a.274.274,0,0,0,.054.005h2.112a.275.275,0,0,0,0-.551H40.417L44.7,54.083l-1.92,1.911a8.689,8.689,0,0,0,5.673,2.342v3.3l-1.114-1.109a.275.275,0,0,0-.389.39L48.53,62.49l.007.006a.284.284,0,0,0,.034.028h0l.021.011.025.013h0l.027.008.023.007h0a.276.276,0,0,0,.105,0h0l.023-.007.026-.008h0a.26.26,0,0,0,.026-.013l.021-.011h0a.269.269,0,0,0,.036-.029l.006,0h0L50.5,60.914a.275.275,0,0,0-.389-.39L49,61.632v-3.3a8.689,8.689,0,0,0,5.674-2.342l-1.92-1.911,4.278,4.258H55.587a.275.275,0,0,0,0,.551H57.7a.274.274,0,0,0,.054-.005l.024-.007.027-.008a.29.29,0,0,0,.028-.015l.02-.011a.276.276,0,0,0,.042-.034h0L57.9,58.8a.273.273,0,0,0,.029-.035.246.246,0,0,0,.012-.022.258.258,0,0,0,.013-.025.255.255,0,0,0,.009-.028c0-.008.005-.015.007-.023a.276.276,0,0,0,0-.046s0,0,0-.008h0v-2.1a.275.275,0,0,0-.275-.275h0a.275.275,0,0,0-.275.275v1.439l-4.281-4.262,1.922,1.913a8.6,8.6,0,0,0,2.355-5.646h3.308l-1.111,1.105a.275.275,0,0,0,.389.39l1.584-1.576h0ZM48.724,54.163a4.479,4.479,0,1,1,4.5-4.479A4.494,4.494,0,0,1,48.724,54.163Z" transform="translate(-35.779 -36.799)" fill="#0090ff"/>
</svg>
