<svg xmlns="http://www.w3.org/2000/svg" width="28.755" height="27.017" viewBox="0 0 28.755 27.017">
  <g id="Creative_Fields" data-name="Creative Fields" transform="translate(456.756 -220.899)">
    <g id="Group_11228" data-name="Group 11228" transform="translate(-456.756 220.899)">
      <path id="Path_604" data-name="Path 604" d="M42.937,54.438c-.008-.112-.013-.224-.013-.333a4.476,4.476,0,0,1,.288-1.584,4.473,4.473,0,0,1-2.49-.792,4.059,4.059,0,0,0,2.214,2.708m2.979-4.093a4.055,4.055,0,0,0-1.806,1.423q-.087.125-.165.255a4.053,4.053,0,0,0,2.247-1.191A3.767,3.767,0,0,0,45.915,50.345Zm-4.784-1.564a4.1,4.1,0,0,0-.381.924,4.051,4.051,0,0,0-.141,1.068v.157c0,.054.005.11.01.163a4,4,0,0,0,2.647.983c.047,0,.094,0,.141,0a4.662,4.662,0,0,1,.339-.562,4.51,4.51,0,0,1,1.894-1.535c-.073-.087-.15-.17-.23-.251l-.012-.011a4.036,4.036,0,0,0-2.862-1.184A4.079,4.079,0,0,0,41.131,48.781ZM40.9,48.4l.006,0A4.5,4.5,0,0,1,45.714,49.4l.014.014A4.488,4.488,0,1,1,40.9,48.4Zm4.766,6.754c-.057.013-.114.025-.172.036a4.585,4.585,0,0,1-.835.078h-.112l0,0H44.5l-.013,0h-.024l-.012,0H44.41l-.013,0h-.012l-.013,0H44.36l-.012,0h-.012l-.013,0h-.013l-.012,0h-.012l-.013,0h-.013l-.012,0h-.012l-.013,0-.036,0-.013,0-.012,0h-.012l-.013,0h0l-.011,0-.012,0h-.013l-.021,0h0l-.013,0-.013,0c-.052-.007-.1-.014-.156-.024l-.012,0-.012,0-.013,0,0,0h-.008l-.133-.027-.011,0-.024-.005-.012,0-.013,0-.011,0h-.007l-.006,0-.012,0-.012,0-.013,0-.011,0,0,0-.011,0-.024-.005-.012,0-.035-.009-.012,0-.068-.018,0,0-.012,0-.011,0-.013,0-.011,0,0,0-.008,0-.011,0-.012,0-.035-.011-.011,0-.013,0-.011,0-.005,0-.006,0-.012,0-.022-.007-.012,0v0l-.011,0a4.494,4.494,0,0,1-3.035-4.05v-.2a4.516,4.516,0,0,1,.159-1.184,4.579,4.579,0,0,1,.171-.506A4.048,4.048,0,1,0,45.4,55.44C45.493,55.348,45.581,55.252,45.664,55.151Zm.709-3.874a4.525,4.525,0,0,1-1.271.855,4.463,4.463,0,0,1-1.4.371,4.036,4.036,0,0,0-.331,1.6c0,.112.006.222.013.325l.02.192a4.2,4.2,0,0,0,.79.172H44.2l.033,0,.009,0,.023,0,.011,0h.011l.005,0h.017l.011,0h.011l.012,0h.011l.011,0h.011l.011,0h.023l.011,0h.023l0,0h.028l.012,0h.044l.012,0h.113a4.1,4.1,0,0,0,.754-.069,3.989,3.989,0,0,0,.653-.181,4.064,4.064,0,0,0,.309-3.294Zm-11.1-3.2L34.18,49.166l2.156,1.068Zm-9.084-6.791.447.447,1.2-1.2-.447-.448a.636.636,0,0,0-.884-.011l-.32.32a.635.635,0,0,0,0,.895Zm1.965-.443-1.2,1.2.179.179,1.2-1.2Zm.493.494-1.2,1.2q3.184,3.184,6.369,6.367l1.2-1.2Q31.828,44.521,28.643,41.338Zm4.163,3.534,2.669,2.668,0,0,0,.005,0,0,0,0,0,0,0,0v0l0,0,0,0h0a.208.208,0,0,1,.042.065l0,0,1.479,2.988,0,0v0h0v0l0,0h0l0,0v.013l0,0v0h0l0,0v.007h0v.006h0v.005h0v.011h0v.005h0V50.7h0v.011h0v.005h0v.016h0v.005h0v.016h0v.005h0v.011h0v.009h0v.005h0V50.8h0v0h0v0l0,0v.005h0l0,0h0l0,0v0l0,0,0,0v0l0,0,0,0,0,0h0l0,0v0l0,0h0l0,0v0l0,0h0l0,0h0l0,0v0l0,0h0l0,0h0l0,0,0,0h0l0,0h0l0,0h0l0,0h0l0,0h0l0,0h0l0,0h0l0,0h0l0,0h0l0,0v0l0,0h0l0,0,0,0,0,0h0l0,0h0l0,0h0l0,0h0l0,0,0,0h0v0h0l0,0h0l0,0h0l0,0h0l0,0h-.006l0,0H36.86l0,0h-.014l0,0h-.034l0,0h-.015l0,0h-.007l0,0h-.005l0,0h0l0,0h0l0,0h0l0,0h0l0,0h0l0,0h0l0,0h0l0,0h0l0,0,0,0-2.992-1.481h0l0,0-.008,0-.009-.005h0l-.014-.007v0h0l0,0h0l-.017-.015h0L33.67,49.4h0l0,0v0h0l0,0h0l0,0-.008-.009-.008-.007,0-.006-3.176-3.176v9.26l5.318,5.319H50.332v-15.9Zm21.95,5.057h-2.98V63.176h2.98v-.8H53.282a.222.222,0,1,1,0-.445h1.474v-.705H53.92a.222.222,0,1,1,0-.445h.836v-.663H53.282a.222.222,0,1,1,0-.445h1.474v-.707H53.92a.221.221,0,1,1,0-.443h.836v-.663H53.282a.222.222,0,1,1,0-.445h1.474V56.7H53.92a.222.222,0,1,1,0-.443h.836V55.6H53.282a.222.222,0,1,1,0-.445h1.474v-.707H53.92a.222.222,0,1,1,0-.445h.836v-.662H53.282a.222.222,0,1,1,0-.445h1.474v-.707H53.92a.222.222,0,1,1,0-.445h.836v-.662H53.282a.222.222,0,1,1,0-.445h1.474ZM29.882,58l.153,3.41,3.409.152Zm-.281,3.63-.186-4.182a.222.222,0,0,1,.212-.231.231.231,0,0,1,.166.065l4.37,4.368a.222.222,0,0,1-.184.378l-4.166-.186A.22.22,0,0,1,29.6,61.626Zm11.444,4.845a.222.222,0,0,1,0,.445h-11.9a.222.222,0,0,1,0-.445Zm-13.114,0a.222.222,0,0,1,0,.445H26.444a.222.222,0,1,1,0-.445Zm23.857-.033a.222.222,0,0,1,0,.445H46.151a.222.222,0,0,1,0-.445ZM42.881,43.762a.222.222,0,1,1,0-.445h8.77a.222.222,0,0,1,.222.222v4.044a.222.222,0,0,1-.445,0V43.762H42.881Zm8.23,21.662a.222.222,0,0,1,0,.445H33.92a.222.222,0,0,1,0-.445ZM27.067,52.686l.5,11.186,11.186.5Z" transform="translate(-26.001 -39.899)" fill="#0090ff" fill-rule="evenodd"/>
    </g>
  </g>
</svg>
