<svg xmlns="http://www.w3.org/2000/svg" width="25.465" height="22.796" viewBox="0 0 25.465 22.796">
  <g id="Dispute" transform="translate(0 0)">
    <g id="Group_127" data-name="Group 127" transform="translate(6.218 2.886)">
      <g id="Group_617" data-name="Group 617">
        <g id="Group_590" data-name="Group 590">
          <g id="Group_589" data-name="Group 589">
            <path id="Path_263" data-name="Path 263" d="M127.927,85.622a1.26,1.26,0,0,0-.362-.448,1.484,1.484,0,0,0-.5-.249,2.011,2.011,0,0,0-.547-.078,1.718,1.718,0,0,0-.91.242,1.422,1.422,0,0,0-.583.675l.86.611a1,1,0,0,0,.089-.124.9.9,0,0,1,.114-.146.633.633,0,0,1,.16-.121.459.459,0,0,1,.22-.05.484.484,0,0,1,.3.1.307.307,0,0,1,.128.259.411.411,0,0,1-.107.274,1.284,1.284,0,0,1-.252.224,2.316,2.316,0,0,1-.291.171q-.146.071-.224.114a1.132,1.132,0,0,0-.306.22.879.879,0,0,0-.171.252.915.915,0,0,0-.071.277q-.014.146-.014.295h1.1a.267.267,0,0,1,.089-.2,1.129,1.129,0,0,1,.227-.163q.139-.078.3-.156a2.426,2.426,0,0,0,.32-.185,1.178,1.178,0,0,0,.444-.494,1.519,1.519,0,0,0,.124-.622A1.5,1.5,0,0,0,127.927,85.622Z" transform="translate(-125.024 -84.847)" fill="#151665"/>
          </g>
        </g>
        <g id="Group_592" data-name="Group 592" transform="translate(0.455 3.944)">
          <g id="Group_591" data-name="Group 591">
            <rect id="Rectangle_1451" data-name="Rectangle 1451" width="1.102" height="1.165" fill="#151665"/>
          </g>
        </g>
        <g id="Group_594" data-name="Group 594" transform="translate(10.679 6.529)">
          <g id="Group_593" data-name="Group 593">
            <rect id="Rectangle_1452" data-name="Rectangle 1452" width="1.35" height="2.963" fill="#151665"/>
          </g>
        </g>
        <g id="Group_596" data-name="Group 596" transform="translate(10.679 10.317)">
          <g id="Group_595" data-name="Group 595">
            <rect id="Rectangle_1453" data-name="Rectangle 1453" width="1.35" height="1.308" fill="#151665"/>
          </g>
        </g>
      </g>
    </g>
    <path id="Path_262" data-name="Path 262" d="M15.99,33.351V26.837H0V38.089H2.369v5.029l4.4-5.029H9.475V44.6H18.7l4.4,5.029V44.6h2.369V33.351ZM9.475,36.312H5.963L4.146,38.39V36.312H1.777v-7.7H14.213v4.738H9.475v2.961Zm14.213,6.514H21.32V44.9L19.5,42.827h-8.25v-7.7H23.689v7.7Z" transform="translate(0 -26.837)" fill="#151665"/>
  </g>
</svg>
