<svg xmlns="http://www.w3.org/2000/svg" width="19.453" height="19.952" viewBox="0 0 19.453 19.952">
  <g id="Edit_Square" data-name="Edit Square" transform="translate(0.75 0.75)">
    <path id="Stroke_1" data-name="Stroke 1" d="M8.249,0H4.721C1.819,0,0,2.129,0,5.142v8.129c0,3.014,1.811,5.142,4.721,5.142h8.327c2.911,0,4.722-2.129,4.722-5.142V9.333" transform="translate(0 0.038)" fill="none" stroke="#151665" stroke-linecap="round" stroke-linejoin="round" stroke-miterlimit="10" stroke-width="1.5"/>
    <path id="Stroke_3" data-name="Stroke 3" d="M.688,7.989,7.74.682a2.2,2.2,0,0,1,3.181,0l1.148,1.19a2.391,2.391,0,0,1,0,3.3L4.983,12.511a2.013,2.013,0,0,1-1.448.622H0l.089-3.7A2.16,2.16,0,0,1,.688,7.989Z" transform="translate(5.047 0)" fill="none" stroke="#151665" stroke-linecap="round" stroke-linejoin="round" stroke-miterlimit="10" stroke-width="1.5"/>
    <path id="Stroke_5" data-name="Stroke 5" d="M0,0,4.309,4.465" transform="translate(11.715 1.811)" fill="none" stroke="#151665" stroke-linecap="round" stroke-linejoin="round" stroke-miterlimit="10" stroke-width="1.5"/>
  </g>
</svg>
