<svg id="File_name" data-name="File name" xmlns="http://www.w3.org/2000/svg" width="20.444" height="19.022" viewBox="0 0 20.444 19.022">
  <path id="Path_622" data-name="Path 622" d="M10.389,18.806,11.4,19.813l8.542-8.542a5.745,5.745,0,1,0-8.125-8.125L2.558,12.4a4.739,4.739,0,0,0,6.7,6.7L17.8,10.559a3.733,3.733,0,0,0,0-5.278,3.822,3.822,0,0,0-5.278,0l-7.83,7.83L5.7,14.118l7.83-7.83a2.368,2.368,0,0,1,3.264,0,2.308,2.308,0,0,1,0,3.264L8.253,18.095a3.315,3.315,0,0,1-4.688-4.688l9.254-9.254a4.322,4.322,0,1,1,6.112,6.112Z" transform="translate(-1.172 -1.465)" fill="#0090ff"/>
</svg>
