<svg id="Fixed-Price" xmlns="http://www.w3.org/2000/svg" width="23" height="23" viewBox="0 0 23 23">
  <path id="Path_5161" data-name="Path 5161" d="M29.206,19.358a.432.432,0,0,0-.04.533,3.279,3.279,0,0,0,.666.837,3.378,3.378,0,0,0,.848.66.439.439,0,0,0,.538-.044q.38-.385-.631-1.382T29.206,19.358Z" transform="translate(-15.154 -10.025)" fill="#0090ff"/>
  <path id="Path_5162" data-name="Path 5162" d="M13.452,0,0,13.451,9.548,23,23,9.544V0Zm-2.96,13.941a1.689,1.689,0,0,1-1.484.553A3.137,3.137,0,0,1,7.279,13.5q-1.832-1.808-.467-3.191a1.728,1.728,0,0,1,1.5-.572,3.094,3.094,0,0,1,1.716.976,3.164,3.164,0,0,1,1.033,1.723A1.744,1.744,0,0,1,10.492,13.938Zm2.215,2.287L10.053,7.19,11,6.227l2.652,9.037Zm4.176-4.086a1.7,1.7,0,0,1-1.485.553,3.131,3.131,0,0,1-1.726-.989Q11.839,9.895,13.2,8.511a1.731,1.731,0,0,1,1.5-.571,3.088,3.088,0,0,1,1.715.976,3.15,3.15,0,0,1,1.029,1.72A1.738,1.738,0,0,1,16.882,12.139Zm3.564-7.564a1.432,1.432,0,1,1,0-2.026A1.434,1.434,0,0,1,20.446,4.575Z" transform="translate(0 0.003)" fill="#0090ff"/>
  <path id="Path_5163" data-name="Path 5163" d="M15.862,23.1a.434.434,0,0,0-.04.534,3.31,3.31,0,0,0,.666.837,3.339,3.339,0,0,0,.849.659.437.437,0,0,0,.538-.043q.378-.385-.631-1.382T15.862,23.1Z" transform="translate(-8.204 -11.977)" fill="#0090ff"/>
</svg>
