<svg id="Former_Freelancers" data-name="Former Freelancers" xmlns="http://www.w3.org/2000/svg" width="19" height="17.1" viewBox="0 0 19 17.1">
  <path id="_2_Friends" data-name="2 Friends" d="M0,14.172c0-2.325,3.217-2.907,6.982-2.907,3.786,0,6.982.6,6.982,2.928S10.747,17.1,6.982,17.1C3.2,17.1,0,16.5,0,14.172Zm15.8.451c.324-2.957-2.248-4.359-2.914-4.681a.05.05,0,0,1-.032-.051.039.039,0,0,1,.035-.027,17.474,17.474,0,0,1,3.56.3,3.033,3.033,0,0,1,2.339,1.395,2,2,0,0,1,0,1.784c-.505,1.067-2.133,1.411-2.767,1.5l-.028,0A.2.2,0,0,1,15.8,14.623ZM2.362,4.525A4.556,4.556,0,0,1,6.982,0,4.556,4.556,0,0,1,11.6,4.525a4.556,4.556,0,0,1-4.62,4.524A4.556,4.556,0,0,1,2.362,4.525Zm10.67,3.856a3.865,3.865,0,0,1-.532-.05.168.168,0,0,1-.116-.261A6.111,6.111,0,0,0,12.292,1a.1.1,0,0,1-.017-.117.141.141,0,0,1,.09-.053,3.993,3.993,0,0,1,.777-.077A3.843,3.843,0,0,1,16.9,5.578a3.838,3.838,0,0,1-3.763,2.8Z" fill="#151665"/>
</svg>
