<svg xmlns="http://www.w3.org/2000/svg" width="56" height="56" viewBox="0 0 56 56">
  <g id="Gmail" transform="translate(-610 -762)">
    <g id="Ellipse_28" data-name="Ellipse 28" transform="translate(610 762)" fill="#fff" stroke="#151665" stroke-width="1">
      <circle cx="28" cy="28" r="28" stroke="none"/>
      <circle cx="28" cy="28" r="27.5" fill="none"/>
    </g>
    <g id="Group_11698" data-name="Group 11698" transform="translate(592.976 744.902)">
      <path id="Path_5182" data-name="Path 5182" d="M91.022,69.989a19.687,19.687,0,0,0-.274-3.189H75.9v6.07h8.5a7.154,7.154,0,0,1-3.155,4.766l5.075,3.943a15.478,15.478,0,0,0,4.7-11.59Z" transform="translate(-30.144 -24.773)" fill="#4280ef"/>
      <path id="Path_5183" data-name="Path 5183" d="M48.959,96.588a15.058,15.058,0,0,0,10.425-3.806l-5.075-3.909a9.547,9.547,0,0,1-14.2-4.972L34.9,87.912A15.724,15.724,0,0,0,48.959,96.588Z" transform="translate(-3.203 -36.01)" fill="#34a353"/>
      <path id="Path_5184" data-name="Path 5184" d="M36.909,64.482a9.562,9.562,0,0,1,0-6.035L31.7,54.4a15.761,15.761,0,0,0,0,14.128Z" transform="translate(0 -16.625)" fill="#f6b704"/>
      <path id="Path_5185" data-name="Path 5185" d="M48.959,35.34a8.587,8.587,0,0,1,6.035,2.366l4.492-4.526A15.147,15.147,0,0,0,48.959,29.1,15.724,15.724,0,0,0,34.9,37.775l5.212,4.046A9.416,9.416,0,0,1,48.959,35.34Z" transform="translate(-3.203 0)" fill="#e54335"/>
    </g>
  </g>
</svg>
