<svg id="Image" xmlns="http://www.w3.org/2000/svg" width="40.519" height="29.133" viewBox="0 0 40.519 29.133">
  <path id="Path_614" data-name="Path 614" d="M324.341,135.283c2.4,0,4.341-1.631,4.341-3.642S326.738,128,324.341,128,320,129.631,320,131.642,321.945,135.283,324.341,135.283Z" transform="translate(-293.952 -123.145)" fill="#0090ff"/>
  <path id="Path_615" data-name="Path 615" d="M69.987,64H34.532A2.357,2.357,0,0,0,32,66.147V90.986a2.357,2.357,0,0,0,2.532,2.147H69.987a2.357,2.357,0,0,0,2.532-2.147V66.147A2.357,2.357,0,0,0,69.987,64ZM60.662,79a1.678,1.678,0,0,0-1.158-.47,1.962,1.962,0,0,0-1.158.432l-1.691,1.2a1.885,1.885,0,0,1-1.04.357,1.672,1.672,0,0,1-.995-.311c-.09-.068-.253-.2-.389-.311l-4.866-4.415a2.177,2.177,0,0,0-1.51-.569,2.233,2.233,0,0,0-1.519.592L34.894,87.079V67.315a1.138,1.138,0,0,1,1.185-.888H68.431a1.084,1.084,0,0,1,1.167.91l.027,19.756Z" transform="translate(-32 -64)" fill="#0090ff"/>
</svg>
