<svg xmlns="http://www.w3.org/2000/svg" width="19" height="16.892" viewBox="0 0 19 16.892">
  <path id="Jobs_Offered" data-name="Jobs Offered" d="M19,14.96v3.289a2.852,2.852,0,0,1-.809,1.4,3.089,3.089,0,0,1-2.152.854H10.923v-1a.772.772,0,0,0-.769-.769H8.846a.772.772,0,0,0-.769.769v1H2.961a3.09,3.09,0,0,1-2.152-.854A2.846,2.846,0,0,1,0,18.25V14.96a1.294,1.294,0,0,1,1.29-1.289H17.711A1.293,1.293,0,0,1,19,14.96Zm-8.846,7.315a.125.125,0,0,0,.124-.124V19.5a.126.126,0,0,0-.124-.125H8.846a.126.126,0,0,0-.125.125v2.648a.126.126,0,0,0,.125.124Zm8.484-2.16a3.732,3.732,0,0,1-2.6,1.034H10.923v1a.772.772,0,0,1-.769.769H8.846a.772.772,0,0,1-.769-.769v-1H2.961a3.732,3.732,0,0,1-2.6-1.034,3.658,3.658,0,0,1-.362-.4v6.981a1.293,1.293,0,0,0,1.29,1.29H17.711A1.293,1.293,0,0,0,19,26.695V19.713A3.649,3.649,0,0,1,18.638,20.116ZM12.473,11.47a1.286,1.286,0,0,0-.912-.378H7.439a1.289,1.289,0,0,0-1.29,1.29v.645h1.1v-.645a.194.194,0,0,1,.194-.194h4.122a.194.194,0,0,1,.193.194v.645h1.1v-.645A1.287,1.287,0,0,0,12.473,11.47Z" transform="translate(0 -11.092)" fill="#151665"/>
</svg>
