<svg xmlns="http://www.w3.org/2000/svg" width="36" height="22.153" viewBox="0 0 36 22.153">
  <g id="Message" transform="translate(-48 -128)">
    <path id="Path_627" data-name="Path 627" d="M54.758,129.791c.952.5,14.175,7.71,14.668,7.97a4.323,4.323,0,0,0,3.548,0c.493-.26,13.716-7.468,14.668-7.97.355-.182.952-.511,1.082-.883.225-.658-.017-.909-.978-.909H54.654c-.961,0-1.2.26-.978.909C53.806,129.289,54.4,129.61,54.758,129.791Z" transform="translate(-5.114)" fill="#fff"/>
    <path id="Path_628" data-name="Path 628" d="M83.281,151.616c-.71.363-7.079,4.9-11.293,7.624l7.113,8c.173.173.251.381.156.485s-.329.043-.511-.121l-8.533-7.2c-1.289.831-2.2,1.4-2.354,1.488a4.323,4.323,0,0,1-3.548,0c-.164-.087-1.064-.658-2.354-1.488l-8.533,7.2c-.173.173-.407.225-.511.121s-.026-.312.147-.485l7.1-8c-4.214-2.726-10.653-7.26-11.362-7.624-.762-.389-.8.069-.8.424v17.74a2.336,2.336,0,0,0,2.034,1.809H82.139A2.149,2.149,0,0,0,84,169.78V152.04C84,151.676,84.051,151.226,83.281,151.616Z" transform="translate(0 -21.435)" fill="#fff"/>
  </g>
</svg>
