<?xml version="1.0" standalone="no"?>
<!DOCTYPE svg PUBLIC "-//W3C//DTD SVG 20010904//EN"
 "http://www.w3.org/TR/2001/REC-SVG-20010904/DTD/svg10.dtd">
<svg version="1.0" xmlns="http://www.w3.org/2000/svg"
 width="1588.000000pt" height="1588.000000pt" viewBox="0 0 1588.000000 1588.000000"
 preserveAspectRatio="xMidYMid meet">

<g transform="translate(0.000000,1588.000000) scale(0.100000,-0.100000)"
fill="#000000" stroke="none">
<path d="M3757 10566 c-71 -19 -101 -53 -100 -113 1 -94 47 -161 158 -232 33
-21 204 -116 380 -211 176 -96 1000 -543 1831 -995 830 -452 1541 -834 1578
-849 120 -48 192 -58 386 -53 197 5 266 20 393 84 40 19 785 424 1657 898 872
474 1680 913 1795 975 313 168 367 206 406 282 47 91 32 169 -38 204 -37 19
-145 19 -4218 21 -3412 1 -4189 -1 -4228 -11z"/>
<path d="M3566 10064 c-9 -8 -19 -27 -23 -42 -5 -15 -8 -1028 -8 -2252 l0
-2225 29 -60 c38 -78 177 -218 261 -262 132 -69 -256 -63 4156 -61 l3985 3 79
39 c88 44 202 148 248 228 61 105 57 -44 57 2370 0 2442 4 2278 -62 2278 -77
0 -104 -18 -1098 -700 -799 -549 -1353 -924 -1593 -1080 -97 -63 -176 -118
-174 -122 1 -4 387 -440 857 -969 470 -528 870 -979 888 -1002 26 -32 32 -49
30 -77 -3 -32 -6 -35 -36 -38 -20 -2 -46 5 -67 16 -23 14 -1691 1414 -2106
1768 -13 12 -52 -10 -275 -152 -142 -91 -290 -181 -329 -200 -256 -126 -599
-124 -854 4 -31 16 -174 103 -318 195 l-262 168 -1051 -888 c-579 -488 -1062
-893 -1074 -900 -27 -16 -79 -16 -94 -1 -17 17 -15 59 5 87 9 13 410 467 891
1009 762 859 873 987 857 997 -71 41 -1127 751 -1657 1113 -795 543 -1058 718
-1123 748 -58 27 -117 31 -139 8z"/>
</g>
</svg>
