<svg xmlns="http://www.w3.org/2000/svg" width="19" height="13.583" viewBox="0 0 19 13.583">
  <g id="Message" transform="translate(-48 -128)">
    <path id="Path_627" data-name="Path 627" d="M54.21,129.1c.5.308,7.481,4.727,7.741,4.887a1.994,1.994,0,0,0,1.873,0c.26-.159,7.239-4.579,7.741-4.887.187-.111.5-.313.571-.541.119-.4-.009-.557-.516-.557H54.155c-.507,0-.635.159-.516.557C53.708,128.791,54.023,128.987,54.21,129.1Z" transform="translate(-5.342 0)" fill="#151665"/>
    <path id="Path_628" data-name="Path 628" d="M66.621,151.558c-.375.223-3.736,3-5.96,4.674l3.754,4.908c.091.106.132.233.082.3s-.174.027-.269-.074l-4.5-4.414c-.681.509-1.16.86-1.242.913a1.994,1.994,0,0,1-1.873,0c-.087-.053-.562-.4-1.242-.913l-4.5,4.414c-.091.106-.215.138-.269.074s-.014-.191.078-.3l3.75-4.908c-2.224-1.671-5.622-4.452-6-4.674-.4-.239-.425.042-.425.26v10.877a1.318,1.318,0,0,0,1.073,1.109H66.018A1.233,1.233,0,0,0,67,162.694V151.818C67,151.595,67.027,151.319,66.621,151.558Z" transform="translate(0 -22.221)" fill="#151665"/>
  </g>
</svg>
