<svg id="Notification" xmlns="http://www.w3.org/2000/svg" width="27.5" height="36" viewBox="0 0 27.5 36">
  <path id="notification-icon" d="M10.6,28.172a2.732,2.732,0,0,1-.8-1.9h5.5a2.724,2.724,0,0,1-.8,1.9,3.186,3.186,0,0,1-2,.8A2.721,2.721,0,0,1,10.6,28.172Zm14.4-3.3H0v-1.5l2.9-2.9v-8A9.065,9.065,0,0,1,5,6.574a8.775,8.775,0,0,1,5.3-3.3v-1a2.123,2.123,0,0,1,.7-1.6,2.119,2.119,0,0,1,3.1,0,2.366,2.366,0,0,1,.7,1.6v1a9.481,9.481,0,0,1,7.4,9.2v8l2.9,2.9v1.5Z" transform="translate(0 7.028)" fill="#fff"/>
  <path id="Oval-3" d="M4.2,0A4.2,4.2,0,1,1,0,4.2,4.2,4.2,0,0,1,4.2,0Z" transform="translate(19.102)" fill="red" opacity="0.8"/>
</svg>
