<svg id="Payment_unverified" data-name="Payment unverified" xmlns="http://www.w3.org/2000/svg" width="20.917" height="20.917" viewBox="0 0 20.917 20.917">
  <path id="Path_5169" data-name="Path 5169" d="M100.9,94.289A6.607,6.607,0,1,0,107.5,100.9a6.614,6.614,0,0,0-6.607-6.607Zm-1.162,9.6-2.555-2.555.87-.87,1.7,1.7,4-3.839.852.888Z" transform="translate(-90.437 -90.437)" fill="#9fa1a2"/>
  <path id="Path_5170" data-name="Path 5170" d="M20.917,10.459c0-.9-.893-1.673-1.115-2.5-.23-.86.151-1.973-.285-2.726s-1.6-.988-2.22-1.608-.844-1.779-1.608-2.22-1.866-.055-2.726-.285C12.132.893,11.36,0,10.459,0s-1.673.893-2.5,1.115c-.86.23-1.973-.151-2.726.285S4.24,3,3.62,3.62,1.842,4.465,1.4,5.228s-.055,1.866-.285,2.726C.893,8.786,0,9.558,0,10.459s.893,1.673,1.115,2.5c.23.86-.151,1.973.285,2.726S3,16.677,3.62,17.3s.844,1.779,1.608,2.22,1.866.055,2.726.285c.831.222,1.6,1.115,2.5,1.115s1.673-.893,2.5-1.115c.86-.23,1.973.151,2.726-.285s.988-1.6,1.608-2.22,1.779-.844,2.22-1.608.055-1.866.285-2.726C20.024,12.132,20.917,11.36,20.917,10.459ZM10.459,18.3A7.837,7.837,0,1,1,18.3,10.459,7.846,7.846,0,0,1,10.459,18.3Z" fill="#9fa1a2"/>
</svg>
