<svg xmlns="http://www.w3.org/2000/svg" width="13.656" height="13.287" viewBox="0 0 13.656 13.287">
  <g id="Person" transform="translate(-11.192 -11.538)">
    <g id="Group_11251" data-name="Group 11251" transform="translate(11.192 11.538)">
      <path id="Path_610" data-name="Path 610" d="M20.445,19.655A4.059,4.059,0,1,0,16.386,15.6,4.064,4.064,0,0,0,20.445,19.655Zm.247-7.138a.186.186,0,1,1-.073.366,2.207,2.207,0,0,0-2.592,1.729.186.186,0,0,1-.183.15.214.214,0,0,1-.037,0,.187.187,0,0,1-.146-.22A2.577,2.577,0,0,1,20.692,12.517Zm-3.108,2.812a.183.183,0,0,1,.205-.165.187.187,0,0,1,.166.205,3,3,0,0,0,0,.71.188.188,0,0,1-.139.224.2.2,0,0,1-.043,0,.187.187,0,0,1-.181-.144A3.3,3.3,0,0,1,17.584,15.329Z" transform="translate(-13.617 -11.538)" fill="#0090ff"/>
      <path id="Path_611" data-name="Path 611" d="M20.891,28.692H15.149a3.961,3.961,0,0,0-3.957,3.956.186.186,0,0,0,.187.186H24.662a.186.186,0,0,0,.187-.186A3.961,3.961,0,0,0,20.891,28.692Z" transform="translate(-11.192 -19.547)" fill="#0090ff"/>
    </g>
  </g>
</svg>
