<svg xmlns="http://www.w3.org/2000/svg" width="42.79" height="42.79" viewBox="0 0 42.79 42.79">
  <g id="Reject" transform="translate(0.5 0.5)">
    <path id="Path_297" data-name="Path 297" d="M28.221,8A20.221,20.221,0,1,0,48.442,28.221,20.221,20.221,0,0,0,28.221,8Zm9.056,29.277-9.056-9.056-9.056,9.056,9.056-9.056-9.056-9.056,9.056,9.056,9.056-9.056-9.056,9.056Z" transform="translate(-7.326 -7.326)" fill="none" stroke="#232323" stroke-width="1"/>
    <g id="Group_669" data-name="Group 669">
      <path id="Path_298" data-name="Path 298" d="M20.9,0a20.9,20.9,0,1,0,20.9,20.9A20.9,20.9,0,0,0,20.9,0Zm0,40.442A19.547,19.547,0,1,1,40.442,20.9,19.547,19.547,0,0,1,20.9,40.442Z" fill="red" stroke="red" stroke-width="1"/>
      <path id="Path_299" data-name="Path 299" d="M151.692,132.627a.674.674,0,0,0-.953,0l-8.579,8.579-8.579-8.579a.674.674,0,1,0-.953.953l8.579,8.579-8.579,8.579a.674.674,0,1,0,.953.953l8.579-8.579,8.579,8.579a.674.674,0,0,0,.953-.953l-8.579-8.579,8.579-8.579A.674.674,0,0,0,151.692,132.627Z" transform="translate(-121.265 -121.265)" fill="red" stroke="red" stroke-width="1"/>
    </g>
  </g>
</svg>
