<svg id="Reviwe" xmlns="http://www.w3.org/2000/svg" width="24.425" height="22" viewBox="0 0 24.425 22">
  <path id="Path_264" data-name="Path 264" d="M112.509,49.1c.281,0,.509-.164.509-.367v-.367c0-.2-.228-.367-.509-.367s-.509.164-.509.367v.367C112,48.936,112.228,49.1,112.509,49.1Z" transform="translate(-108.947 -46.533)" fill="#151665"/>
  <path id="Path_265" data-name="Path 265" d="M144.509,49.1c.281,0,.509-.164.509-.367v-.367c0-.2-.228-.367-.509-.367s-.509.164-.509.367v.367C144,48.936,144.228,49.1,144.509,49.1Z" transform="translate(-138.911 -46.533)" fill="#151665"/>
  <path id="Path_266" data-name="Path 266" d="M368.509,184c-.281,0-.509.164-.509.367v.367c0,.2.228.367.509.367s.509-.164.509-.367v-.367C369.018,184.164,368.79,184,368.509,184Z" transform="translate(-348.664 -176.3)" fill="#151665"/>
  <path id="Path_267" data-name="Path 267" d="M401.018,184.367c0-.2-.228-.367-.509-.367s-.509.164-.509.367v.367c0,.2.228.367.509.367s.509-.164.509-.367Z" transform="translate(-378.628 -176.3)" fill="#151665"/>
  <path id="Path_268" data-name="Path 268" d="M360.509,289.1c.281,0,.509-.164.509-.367v-.367c0-.2-.228-.367-.509-.367s-.509.164-.509.367v.367C360,288.936,360.228,289.1,360.509,289.1Z" transform="translate(-341.172 -275.533)" fill="#151665"/>
  <path id="Path_269" data-name="Path 269" d="M392.509,289.1c.281,0,.509-.164.509-.367v-.367c0-.2-.228-.367-.509-.367s-.509.164-.509.367v.367C392,288.936,392.228,289.1,392.509,289.1Z" transform="translate(-371.137 -275.533)" fill="#151665"/>
  <path id="Path_270" data-name="Path 270" d="M212.052,81.938h-1.07l-.331-.733a1,1,0,0,0-1.122-.412.809.809,0,0,0-.571.412l-.331.733h-1.07c-.492,0-.89.287-.89.642a.61.61,0,0,0,.367.519l.866.453-.331.733c-.152.337.1.7.572.809a1.183,1.183,0,0,0,.8-.091l.866-.453.866.453a1.13,1.13,0,0,0,1.244-.142.5.5,0,0,0,.127-.576l-.331-.733.866-.453a.536.536,0,0,0,.2-.9,1.033,1.033,0,0,0-.72-.265ZM211.037,83a.553.553,0,0,0-.324.717l.238.528-.623-.326a1.175,1.175,0,0,0-1.047,0l-.623.326.238-.528a.553.553,0,0,0-.324-.717l-.624-.327h.77a.91.91,0,0,0,.847-.443l.238-.528.238.528a.91.91,0,0,0,.847.443h.771Z" transform="translate(-197.592 -77.793)" fill="#151665"/>
  <path id="Path_271" data-name="Path 271" d="M325.385,84.28l-.331-.733.866-.453a.536.536,0,0,0,.2-.9,1.034,1.034,0,0,0-.72-.265h-1.07L324,81.2a1,1,0,0,0-1.122-.412.81.81,0,0,0-.572.412l-.331.733H320.9c-.492,0-.89.287-.891.642a.61.61,0,0,0,.367.519l.866.453-.331.733c-.152.337.1.7.572.809a1.182,1.182,0,0,0,.8-.091l.866-.453.866.453a1.13,1.13,0,0,0,1.244-.142A.5.5,0,0,0,325.385,84.28Zm-1-1.287a.553.553,0,0,0-.324.717l.238.528-.623-.326a1.176,1.176,0,0,0-1.047,0l-.623.326.238-.528a.553.553,0,0,0-.323-.717l-.624-.327h.771a.91.91,0,0,0,.847-.443l.238-.528.238.528a.91.91,0,0,0,.847.443h.771Z" transform="translate(-303.727 -77.788)" fill="#151665"/>
  <path id="Path_272" data-name="Path 272" d="M101.4,81.935h-1.07L100,81.2a1,1,0,0,0-1.122-.412.809.809,0,0,0-.572.412l-.331.733H96.9c-.492,0-.89.287-.891.642a.61.61,0,0,0,.367.519l.866.453-.331.733c-.152.337.1.7.572.809a1.183,1.183,0,0,0,.8-.091l.866-.453.866.453a1.13,1.13,0,0,0,1.244-.142.5.5,0,0,0,.127-.576l-.331-.733.866-.453a.536.536,0,0,0,.2-.9,1.034,1.034,0,0,0-.72-.265Zm-1.015,1.06a.553.553,0,0,0-.324.717l.238.528-.623-.326a1.176,1.176,0,0,0-1.047,0L98,84.24l.238-.528a.553.553,0,0,0-.324-.717l-.624-.327h.771a.91.91,0,0,0,.847-.443l.238-.528.238.528a.91.91,0,0,0,.847.443h.771Z" transform="translate(-93.975 -77.79)" fill="#151665"/>
  <path id="Path_273" data-name="Path 273" d="M86.262,26.267c1.194,0,2.161-.7,2.163-1.558v-7.15c0-.86-.969-1.557-2.163-1.558h-20.1C64.969,16,64,16.7,64,17.558v7.15c0,.86.969,1.557,2.163,1.558H75.7V27H66.163C64.969,27,64,27.7,64,28.558v6c0,.86.969,1.557,2.163,1.558h2.777l3.945,1.821a.636.636,0,0,0,.7-.111.3.3,0,0,0,.08-.2V36.121H86.262c1.194,0,2.161-.7,2.163-1.558v-6c0-.86-.969-1.557-2.163-1.558H79.1l1.357-.733Zm0,1.467c.632,0,1.144.37,1.145.825v6c0,.455-.513.824-1.145.825h-13.1c-.281,0-.509.164-.509.367v1.209l-3.287-1.518a.659.659,0,0,0-.274-.058H66.163c-.632,0-1.144-.37-1.145-.825v-6c0-.455.513-.824,1.145-.825H75.7V28.1c0,.2.228.367.509.367a.648.648,0,0,0,.305-.073l1.221-.66Zm-6.284-2.127-3.257,1.76V25.9c0-.2-.228-.367-.509-.367H66.163c-.632,0-1.144-.37-1.145-.825v-7.15c0-.455.513-.824,1.145-.825h20.1c.632,0,1.144.37,1.145.825v7.15c0,.455-.513.824-1.145.825H80.283A.648.648,0,0,0,79.978,25.607Z" transform="translate(-64 -16)" fill="#151665"/>
  <path id="Path_274" data-name="Path 274" d="M128.509,399c-.281,0-.509.164-.509.367v.367c0,.2.228.367.509.367s.509-.164.509-.367v-.367C129.018,399.164,128.79,399,128.509,399Z" transform="translate(-123.929 -381.446)" fill="#151665"/>
  <path id="Path_275" data-name="Path 275" d="M96.509,399c-.281,0-.509.164-.509.367v.367c0,.2.228.367.509.367s.509-.164.509-.367v-.367C97.018,399.164,96.79,399,96.509,399Z" transform="translate(-93.965 -381.446)" fill="#151665"/>
  <path id="Path_276" data-name="Path 276" d="M264.378,306.334l.866.453-.331.733c-.153.337.1.7.57.809a1.182,1.182,0,0,0,.8-.091l.866-.453.865.453a1.13,1.13,0,0,0,1.244-.141.5.5,0,0,0,.127-.576l-.331-.733.866-.453a.536.536,0,0,0,.2-.9,1.033,1.033,0,0,0-.72-.264h-1.07L268,304.44a1,1,0,0,0-1.122-.412.81.81,0,0,0-.572.412l-.331.733H264.9c-.492,0-.89.287-.891.642A.61.61,0,0,0,264.378,306.334Zm1.686-.427a.91.91,0,0,0,.847-.443l.238-.528.238.528a.91.91,0,0,0,.847.443H269l-.623.326a.553.553,0,0,0-.323.717l.238.528-.623-.326a1.176,1.176,0,0,0-1.047,0l-.623.326.238-.528a.553.553,0,0,0-.323-.717l-.623-.326Z" transform="translate(-251.289 -290.796)" fill="#151665"/>
  <path id="Path_277" data-name="Path 277" d="M153.359,305.172h-1.07l-.331-.733a1,1,0,0,0-1.122-.412.81.81,0,0,0-.572.412l-.331.733h-1.07c-.492,0-.891.287-.891.642a.61.61,0,0,0,.367.519l.866.453-.331.733c-.152.337.1.7.571.809a1.182,1.182,0,0,0,.8-.091l.866-.453.866.453a1.13,1.13,0,0,0,1.244-.142.5.5,0,0,0,.127-.576l-.331-.733.866-.453a.536.536,0,0,0,.2-.9,1.034,1.034,0,0,0-.72-.264Zm-1.015,1.06a.553.553,0,0,0-.323.717l.238.528-.623-.327a1.176,1.176,0,0,0-1.047,0l-.623.326.238-.528a.553.553,0,0,0-.323-.717l-.623-.326h.77a.91.91,0,0,0,.847-.443l.238-.528.238.528a.91.91,0,0,0,.847.444h.771Z" transform="translate(-142.633 -290.796)" fill="#151665"/>
</svg>
