<svg id="Save" xmlns="http://www.w3.org/2000/svg" width="39" height="32.5" viewBox="0 0 39 32.5">
  <path id="paste" d="M32.5,8.5H21.45a3.236,3.236,0,0,1-2.925-1.787L17.063,3.787A3,3,0,0,0,14.3,2H6.5A6.519,6.519,0,0,0,0,8.5V28a6.519,6.519,0,0,0,6.5,6.5h8.125a1.535,1.535,0,0,0,1.625-1.625v-6.5H14.3a1.626,1.626,0,0,1-1.137-2.762l5.2-5.2a1.571,1.571,0,0,1,2.275,0l5.2,5.2A1.626,1.626,0,0,1,24.7,26.375H22.75v6.5A1.535,1.535,0,0,0,24.375,34.5H32.5A6.519,6.519,0,0,0,39,28V15A6.519,6.519,0,0,0,32.5,8.5Z" transform="translate(0 -2)" fill="#0090ff"/>
</svg>
