<svg xmlns="http://www.w3.org/2000/svg" width="24.777" height="40.956" viewBox="0 0 24.777 40.956">
  <g id="Saved_Job" data-name="Saved Job" transform="translate(0.5 0.5)">
    <g id="Group_58" data-name="Group 58" transform="translate(0)">
      <g id="Group_57" data-name="Group 57">
        <path id="Path_95" data-name="Path 95" d="M90.769,0H68.448a.769.769,0,0,0-.728.805V39.151a.813.813,0,0,0,.437.741.667.667,0,0,0,.291.064.69.69,0,0,0,.487-.209L79.608,28.995,90.282,39.747a.679.679,0,0,0,1.028-.058.856.856,0,0,0,.187-.538V.805A.77.77,0,0,0,90.769,0ZM80.1,27.311a.677.677,0,0,0-.982,0L69.175,37.33V1.611H90.042V37.33Z" transform="translate(-67.72)" fill="#0090ff" stroke="#0090ff" stroke-width="1"/>
      </g>
    </g>
    <g id="Group_60" data-name="Group 60" transform="translate(3.851 5.763)">
      <g id="Group_59" data-name="Group 59" transform="translate(0)">
        <path id="Path_96" data-name="Path 96" d="M125.917,63.312a.706.706,0,0,0-.42-.238l-4.656-.749-2.11-4.631a.7.7,0,0,0-.976-.362.771.771,0,0,0-.327.362l-2.081,4.671-4.656.749a.8.8,0,0,0-.616.913.838.838,0,0,0,.215.465l3.39,3.592-.771,5.171a.8.8,0,0,0,.6.927.667.667,0,0,0,.457-.081l4.162-2.416,4.162,2.416a.7.7,0,0,0,.982-.34.882.882,0,0,0,.073-.505l-.815-5.171,3.369-3.632A.867.867,0,0,0,125.917,63.312Zm-4.676,3.966a.86.86,0,0,0-.211.709l.611,3.93-3.2-1.86a.666.666,0,0,0-.677,0l-3.194,1.86.611-3.938a.86.86,0,0,0-.211-.709l-2.583-2.787,3.572-.62a.738.738,0,0,0,.546-.443l1.6-3.584,1.6,3.584a.739.739,0,0,0,.546.443l3.572.572Z" transform="translate(-110.068 -57.247)" fill="#0090ff" stroke="#0090ff" stroke-width="1"/>
      </g>
    </g>
  </g>
</svg>
