<svg xmlns="http://www.w3.org/2000/svg" width="31.004" height="31.324" viewBox="0 0 31.004 31.324">
  <path id="Search" d="M29.174,31.324a1.831,1.831,0,0,1-1.325-.573l-8.481-8.573-.008.006a11.818,11.818,0,0,1-7.133,2.376H12.18a12.117,12.117,0,0,1-8.6-3.632A12.383,12.383,0,0,1,3.52,3.569,12.065,12.065,0,0,1,12.04,0h.052a12.117,12.117,0,0,1,8.6,3.632,12.369,12.369,0,0,1,3.582,8.693,12.136,12.136,0,0,1-2.326,7.231l8.489,8.579a1.861,1.861,0,0,1,.51,1.8,1.839,1.839,0,0,1-1.311,1.325A1.814,1.814,0,0,1,29.174,31.324ZM12.056,2.457A9.639,9.639,0,0,0,5.244,5.312,9.9,9.9,0,0,0,5.294,19.2,9.694,9.694,0,0,0,12.172,22.1h.037a9.648,9.648,0,0,0,6.819-2.858,9.9,9.9,0,0,0-.05-13.885,9.689,9.689,0,0,0-6.878-2.9Z" fill="#0090ff"/>
</svg>
