<svg xmlns="http://www.w3.org/2000/svg" width="18.627" height="19.869" viewBox="0 0 18.627 19.869">
  <path id="Share" d="M31.135,12.884A3.49,3.49,0,0,0,28.326,14.3l-5.482-2.8a3.493,3.493,0,0,0-.114-2.295l5.746-3.452a3.478,3.478,0,1,0-.6-1l-5.76,3.461a3.492,3.492,0,1,0,.214,4.331L27.8,15.341a3.493,3.493,0,1,0,3.336-2.457Zm0-11.72a2.328,2.328,0,1,1-2.328,2.328A2.331,2.331,0,0,1,31.135,1.164ZM19.493,12.845a2.328,2.328,0,1,1,2.328-2.328A2.331,2.331,0,0,1,19.493,12.845ZM31.135,18.7a2.328,2.328,0,1,1,2.328-2.328A2.331,2.331,0,0,1,31.135,18.7Z" transform="translate(-16)" fill="#151665"/>
</svg>
