<svg xmlns="http://www.w3.org/2000/svg" width="31" height="31" viewBox="0 0 31 31">
  <g id="Social_Media_Small_Dark_Insta" data-name="Social Media / Small / Dark / Insta" transform="translate(0 0.001)">
    <g id="Social_Media_Small_Dark_inst" data-name="Social Media / Small / Dark / inst">
      <circle id="Ellipse_3" data-name="Ellipse 3" cx="15.5" cy="15.5" r="15.5" transform="translate(0 -0.001)" fill="#fff"/>
      <g id="instagram" transform="translate(6.879 6.879)">
        <path id="Path_5154" data-name="Path 5154" d="M18.187,5.36a6.7,6.7,0,0,0-.424-2.214,4.47,4.47,0,0,0-1.052-1.616A4.472,4.472,0,0,0,15.1.478,6.7,6.7,0,0,0,12.882.055C11.909.01,11.6,0,9.121,0S6.333.01,5.36.055A6.7,6.7,0,0,0,3.146.479,4.47,4.47,0,0,0,1.531,1.531,4.471,4.471,0,0,0,.478,3.146,6.7,6.7,0,0,0,.055,5.36C.01,6.333,0,6.644,0,9.121s.011,2.788.055,3.761A6.7,6.7,0,0,0,.479,15.1a4.47,4.47,0,0,0,1.052,1.615,4.469,4.469,0,0,0,1.616,1.052,6.693,6.693,0,0,0,2.214.424c.973.044,1.284.055,3.761.055s2.788-.01,3.761-.055a6.694,6.694,0,0,0,2.214-.424A4.663,4.663,0,0,0,17.763,15.1a6.694,6.694,0,0,0,.424-2.214c.044-.973.055-1.284.055-3.761s-.011-2.788-.055-3.761Zm-1.642,7.446a5.047,5.047,0,0,1-.314,1.694A3.02,3.02,0,0,1,14.5,16.232a5.047,5.047,0,0,1-1.694.314c-.962.044-1.25.053-3.686.053S6.4,16.59,5.435,16.546a5.048,5.048,0,0,1-1.694-.314,2.827,2.827,0,0,1-1.049-.682A2.826,2.826,0,0,1,2.01,14.5,5.047,5.047,0,0,1,1.7,12.807c-.044-.962-.053-1.25-.053-3.686S1.653,6.4,1.7,5.435A5.05,5.05,0,0,1,2.01,3.742a2.828,2.828,0,0,1,.682-1.049,2.824,2.824,0,0,1,1.049-.682A5.046,5.046,0,0,1,5.435,1.7c.962-.044,1.25-.053,3.686-.053h0c2.435,0,2.724.009,3.686.053a5.047,5.047,0,0,1,1.694.314,2.828,2.828,0,0,1,1.049.682,2.824,2.824,0,0,1,.682,1.049,5.042,5.042,0,0,1,.314,1.694c.044.962.053,1.25.053,3.686s-.009,2.724-.053,3.686Zm0,0" transform="translate(0 0)" fill="#151665"/>
        <path id="Path_5155" data-name="Path 5155" d="M129.223,124.539a4.684,4.684,0,1,0,4.684,4.684A4.684,4.684,0,0,0,129.223,124.539Zm0,7.724a3.04,3.04,0,1,1,3.04-3.041A3.04,3.04,0,0,1,129.223,132.263Zm0,0" transform="translate(-120.102 -120.102)" fill="#151665"/>
        <path id="Path_5156" data-name="Path 5156" d="M364.119,89.72a1.095,1.095,0,1,1-1.094-1.095A1.095,1.095,0,0,1,364.119,89.72Zm0,0" transform="translate(-349.034 -85.468)" fill="#151665"/>
      </g>
    </g>
  </g>
</svg>
