<svg id="Social_Media_Small_Dark_Twitter" data-name="Social Media / Small / Dark / Twitter" xmlns="http://www.w3.org/2000/svg" width="30.358" height="30.358" viewBox="0 0 30.358 30.358">
  <g id="Social_Media_Small_Dark_Twitter-2" data-name="Social Media / Small / Dark / Twitter" transform="translate(0 0)">
    <circle id="Oval" cx="15.179" cy="15.179" r="15.179" fill="#fff"/>
    <path id="Shape" d="M17.685,1.7a7.239,7.239,0,0,1-2.084.571A3.638,3.638,0,0,0,17.2.265a7.263,7.263,0,0,1-2.3.88,3.631,3.631,0,0,0-6.183,3.31A10.3,10.3,0,0,1,1.231.664,3.632,3.632,0,0,0,2.354,5.508,3.6,3.6,0,0,1,.71,5.054c0,.015,0,.031,0,.046A3.63,3.63,0,0,0,3.621,8.657a3.642,3.642,0,0,1-1.638.063,3.632,3.632,0,0,0,3.389,2.52A7.28,7.28,0,0,1,.865,12.793,7.306,7.306,0,0,1,0,12.742a10.263,10.263,0,0,0,5.561,1.63A10.253,10.253,0,0,0,15.884,4.048c0-.157,0-.314-.011-.469A7.358,7.358,0,0,0,17.685,1.7Z" transform="translate(5.733 8.027)" fill="#151665"/>
  </g>
</svg>
