<svg xmlns="http://www.w3.org/2000/svg" width="30.106" height="29.332" viewBox="0 0 30.106 29.332">
  <path id="Text" d="M28.2,128.019l-1.27.516q-.282.1-4.963.1-1.035,0-3.1-.038t-3.1-.038q-.847,0-2.528.01t-2.528.01H3.81q-.141,0-.494.01t-.482,0a3.529,3.529,0,0,1-.376-.057.984.984,0,0,1-.412-.172,2.543,2.543,0,0,1-.353-.334L.706,128q-.094,0-.329.01t-.329.01Q0,130.157,0,134.434a11.952,11.952,0,0,0,.118,2.081,9.7,9.7,0,0,0,1.6.344,13.906,13.906,0,0,0,1.27-2.444q.071-.172.259-.916t.341-1.4a5.354,5.354,0,0,1,.176-.678,1.341,1.341,0,0,1,.282-.239.925.925,0,0,1,.365-.115q.223-.029.306-.048a2.366,2.366,0,0,1,.423-.01l.388.01q.4,0,1.564-.01T8.844,131q.588,0,1.505.038t1.67.115a16.913,16.913,0,0,1,.188,2.6q0,1.795-.047,7.408t-.047,8.687q0,.305.059,1.365a12.84,12.84,0,0,1,0,1.747,4.957,4.957,0,0,1-.294,1.317,16.657,16.657,0,0,1-2.917.811,23.244,23.244,0,0,0-2.822.716,9.008,9.008,0,0,0-.118.955,2.312,2.312,0,0,0,.071.554l.8.019q1.788.038,5.127-.153t4.869-.191q1.176,0,3.552.172t3.575.172q.071-.974.071-.993v-.172a2.769,2.769,0,0,0-1.447-.821q-1.047-.305-2.317-.554a8.434,8.434,0,0,1-1.835-.515q-.447-.8-.447-7.312,0-1.928.071-5.785t.071-5.785v-2.234q0-.038-.012-.3t-.012-.477q0-.22.024-.487a3.07,3.07,0,0,1,.071-.458.622.622,0,0,1,.118-.267,14.024,14.024,0,0,1,3.81-.229,14.644,14.644,0,0,1,2.187.229,6.511,6.511,0,0,1,1.882.5,2.38,2.38,0,0,1,.8,1.384q.353,1.136.741,2.119t1,1.021a5.22,5.22,0,0,0,1.317-.84v-7.312Z" transform="translate(0 -128)" fill="#0090ff"/>
</svg>
