<svg xmlns="http://www.w3.org/2000/svg" width="28.692" height="27.017" viewBox="0 0 28.692 27.017">
  <g id="Tools" transform="translate(0 0)">
    <g id="Group_11230" data-name="Group 11230" transform="translate(0 0)">
      <path id="Path_605" data-name="Path 605" d="M43.244,0a3.836,3.836,0,0,1,2.781,1.117l6.434,5.824.69-.744L55.6,8.425l-3.742,4.133-2.457-2.24.611-.674L43.548,3.788A3.741,3.741,0,0,0,40.76,2.87a5.763,5.763,0,0,0-2.121.518Q40.806.126,43.244,0Z" transform="translate(-26.912 0)" fill="#0090ff"/>
      <rect id="Rectangle_1413" data-name="Rectangle 1413" width="0.77" height="3.989" transform="translate(20.964 2.467) rotate(-47.845)" fill="#0090ff"/>
      <path id="Path_606" data-name="Path 606" d="M11.442,50.429l-7.859,8.3,3.77,3.413L14.846,53.5Z" transform="translate(-2.495 -35.124)" fill="#0090ff"/>
      <g id="Group_11229" data-name="Group 11229" transform="translate(0 2.518)">
        <path id="Path_607" data-name="Path 607" d="M47.21,26.209l4.6-5.3-2.975-2.693-4.818,5.111Z" transform="translate(-30.655 -15.205)" fill="#0090ff"/>
        <path id="Path_608" data-name="Path 608" d="M25.229,28.612a4.185,4.185,0,0,0,.107-1.161,4.056,4.056,0,0,0-4.288-3.867,4.634,4.634,0,0,0-1.146.205l-4.064-3.663.018-.021-3.23-2.914-.005.005L8.367,13.346A4.436,4.436,0,0,0,8.459,12.2,3.97,3.97,0,0,0,7.128,9.345,3.93,3.93,0,0,0,4.186,8.3a4.255,4.255,0,0,0-1.161.223L6.31,11.5,3.4,14.732.112,11.758A4.2,4.2,0,0,0,0,12.919a3.929,3.929,0,0,0,1.33,2.824,3.929,3.929,0,0,0,2.942,1.043A4.3,4.3,0,0,0,5.5,16.544l1.426,1.291,0,0,9.286,8.375-.017.019.8.731a4.277,4.277,0,0,0-.121,1.228,3.965,3.965,0,0,0,1.322,2.841,3.923,3.923,0,0,0,2.951,1.043,4.194,4.194,0,0,0,1.145-.222l-3.286-2.975,2.928-3.234Z" transform="translate(0 -8.296)" fill="#0090ff"/>
      </g>
    </g>
  </g>
</svg>
