<svg xmlns="http://www.w3.org/2000/svg" width="17.86" height="12.822" viewBox="0 0 17.86 12.822">
  <path id="visibility" d="M9.93,4.5A9.626,9.626,0,0,0,1,10.911a9.626,9.626,0,0,0,8.93,6.411,9.626,9.626,0,0,0,8.93-6.411A9.626,9.626,0,0,0,9.93,4.5Zm0,10.685a4.172,4.172,0,0,1-4.059-4.274A4.172,4.172,0,0,1,9.93,6.637a4.172,4.172,0,0,1,4.059,4.274A4.172,4.172,0,0,1,9.93,15.185Zm0-6.839a2.5,2.5,0,0,0-2.436,2.564A2.5,2.5,0,0,0,9.93,13.476a2.5,2.5,0,0,0,2.436-2.564A2.5,2.5,0,0,0,9.93,8.347Z" transform="translate(-1 -4.5)" fill="#0090ff"/>
</svg>
