<svg xmlns="http://www.w3.org/2000/svg" width="19.019" height="22.223" viewBox="0 0 19.019 22.223">
  <g id="Withdraw_and_delete" data-name="Withdraw and delete" transform="translate(0.509 0.5)">
    <path id="Path_113" data-name="Path 113" d="M64.944,4.744l-.487-1.4a1.354,1.354,0,0,0-1.289-.894h-4.09V1.162A1.186,1.186,0,0,0,57.872,0H54.127a1.186,1.186,0,0,0-1.206,1.162V2.445h-4.09a1.354,1.354,0,0,0-1.289.894l-.487,1.4a1.022,1.022,0,0,0,.15.947,1.108,1.108,0,0,0,.886.437H48.6l1.119,13.331A1.974,1.974,0,0,0,51.7,21.223h8.818a1.974,1.974,0,0,0,1.985-1.764L63.626,6.128h.282a1.109,1.109,0,0,0,.886-.437A1.022,1.022,0,0,0,64.944,4.744Zm-10.732-3.5h3.575v1.2H54.212ZM61.22,19.358a.694.694,0,0,1-.7.621H51.7a.694.694,0,0,1-.7-.621L49.9,6.128H62.331ZM48.368,4.884l.4-1.152a.067.067,0,0,1,.064-.044H63.168a.067.067,0,0,1,.064.044l.4,1.152Z" transform="translate(-47)" fill="#151665" stroke="rgba(0,0,0,0)" stroke-width="1"/>
    <path id="Path_114" data-name="Path 114" d="M315.908,178.506h.034a.645.645,0,0,0,.644-.612l.606-11.639a.646.646,0,0,0-1.29-.067l-.606,11.639A.646.646,0,0,0,315.908,178.506Z" transform="translate(-303.747 -159.265)" fill="#151665" stroke="rgba(0,0,0,0)" stroke-width="1"/>
    <path id="Path_115" data-name="Path 115" d="M153.429,177.9a.646.646,0,0,0,.644.611h.036a.646.646,0,0,0,.609-.68l-.635-11.639a.646.646,0,0,0-1.289.07Z" transform="translate(-148.24 -159.268)" fill="#151665" stroke="rgba(0,0,0,0)" stroke-width="1"/>
    <path id="Path_116" data-name="Path 116" d="M241.9,178.508a.646.646,0,0,0,.646-.646V166.224a.646.646,0,0,0-1.291,0v11.639A.646.646,0,0,0,241.9,178.508Z" transform="translate(-232.892 -159.267)" fill="#151665" stroke="rgba(0,0,0,0)" stroke-width="1"/>
  </g>
</svg>
